<svg width="100" height="77" viewBox="0 0 100 77" fill="none" xmlns="http://www.w3.org/2000/svg">
<path d="M70.6888 55.9438C74.521 55.5636 77.498 53.9317 79.6199 51.0482C81.7419 48.1646 82.8028 44.2512 82.8028 39.308C82.8028 35.9492 82.3278 33.1132 81.3777 30.8C80.4592 28.4868 79.1766 26.7124 77.5297 25.4765C75.8828 24.2724 74.0142 23.6704 71.924 23.6704C70.1821 23.607 68.6619 23.9714 67.3634 24.7636C66.0649 25.5875 64.9406 26.7123 63.9905 28.1383C63.072 29.5642 62.2644 31.2119 61.5677 33.0815C60.9026 34.951 60.3325 36.9473 59.8575 39.0704L57.7672 47.8161C56.8171 52.0621 55.5503 55.9597 53.9667 59.5086C52.3832 63.0576 50.4355 66.1313 48.1235 68.7296C45.8116 71.328 43.0879 73.3401 39.9525 74.7661C36.8171 76.2237 33.2225 76.9683 29.1686 77C23.2146 76.9683 18.0523 75.4473 13.6817 72.437C9.34283 69.4584 5.96991 65.149 3.56294 59.5086C1.18765 53.9 -3.46092e-07 47.1348 0 39.213C3.43323e-07 31.3545 1.20348 24.5101 3.61045 18.6796C6.01742 12.8809 9.58036 8.34959 14.2993 5.0858C19.0499 1.8537 24.9248 0.158436 31.924 0V19.9154C28.6619 20.1372 25.9382 21.072 23.753 22.7198C21.5994 24.3992 19.9683 26.6331 18.8599 29.4216C17.7831 32.2418 17.2447 35.4263 17.2447 38.9753C17.2447 42.4609 17.7514 45.487 18.7648 48.0537C19.7783 50.6521 21.1876 52.6642 22.9929 54.0901C24.7981 55.5161 26.8725 56.229 29.2161 56.229C31.4014 56.229 33.2383 55.5794 34.7268 54.2802C36.2154 53.0128 37.4822 51.1432 38.5273 48.6716C39.5724 46.2317 40.5226 43.2372 41.3777 39.6883L44.038 29.0889C46.0333 20.8819 49.1528 14.4019 53.3967 9.64877C57.6405 4.89568 63.3571 2.53498 70.5463 2.56667C76.4371 2.53498 81.5835 4.1035 85.9857 7.27223C90.388 10.4726 93.8242 14.8613 96.2945 20.4383C98.7648 26.0152 100 32.3527 100 39.4506C100 46.6753 98.7648 52.9811 96.2945 58.3679C93.8242 63.7864 90.388 68.0008 85.9857 71.0111C81.5835 74.0214 76.4846 75.5741 70.6888 75.6691L70.6888 55.9438Z" fill="#B6B6B6"/>
</svg>
